<?xml version="1.0" encoding="UTF-8" standalone="no"?><!-- Generator: Gravit.io --><svg xmlns="http://www.w3.org/2000/svg" xmlns:xlink="http://www.w3.org/1999/xlink" style="isolation:isolate" viewBox="0 0 22 22" width="22pt" height="22pt"><defs><clipPath id="_clipPath_UfJEmPughYdA78EilWpSGIOQh2AlUswX"><rect width="22" height="22"/></clipPath></defs><g clip-path="url(#_clipPath_UfJEmPughYdA78EilWpSGIOQh2AlUswX)"><clipPath id="_clipPath_LZT6Ikir214GNKYGs2OKEDEF79WA2HL2"><rect x="0" y="0" width="22" height="22" transform="matrix(1,0,0,1,0,0)" fill="rgb(255,255,255)"/></clipPath><g clip-path="url(#_clipPath_LZT6Ikir214GNKYGs2OKEDEF79WA2HL2)"><g><clipPath id="_clipPath_akfSDU45cDBmyku6gxlDZ8uvNTsCAOh3"><rect x="0" y="0" width="32" height="32" transform="matrix(1,0,0,1,0,0)" fill="rgb(255,255,255)"/></clipPath><g clip-path="url(#_clipPath_akfSDU45cDBmyku6gxlDZ8uvNTsCAOh3)"><g><g><path d=" M 5.642 7.491 L 4.711 6.577 L 11 0 L 17.289 6.575 L 16.358 7.488 L 12 3 L 12 17 L 10 17 L 10 3 L 5.642 7.491 Z  M 20 12 L 20 20 L 2 20 L 2 12 L 0 12 L 0 22 L 22 22 L 22 12 L 20 12 Z " fill="rgb(0,0,0)"/></g></g></g></g></g></g></svg>