<?xml version="1.0" encoding="UTF-8" standalone="no"?><!-- Generator: Gravit.io --><svg xmlns="http://www.w3.org/2000/svg" xmlns:xlink="http://www.w3.org/1999/xlink" style="isolation:isolate" viewBox="0 0 22 22" width="22pt" height="22pt"><defs><clipPath id="_clipPath_jUI1IDuTJkpoizxnsJ6B1AuvwMBkPb5A"><rect width="22" height="22"/></clipPath></defs><g clip-path="url(#_clipPath_jUI1IDuTJkpoizxnsJ6B1AuvwMBkPb5A)"><path d=" M 0 0 L 6 0 L 6 2 L 3.576 2 L 8.96 7.383 L 7.383 8.96 L 2 3.576 L 2 6 L 0 6 M 16 0 L 16 2 L 18.424 2 L 13.038 7.381 L 14.616 8.958 L 20 3.576 L 20 6 L 22 6 L 22 0 M 22 22 L 22 16 L 20 16 L 20 18.424 L 14.617 13.041 L 13.041 14.617 L 18.424 20 L 16 20 L 16 22 M 0 22 L 6 22 L 6 20 L 3.569 20 L 8.956 14.614 L 7.381 13.038 L 2 18.415 L 2 16 L 0 16" fill="rgb(0,0,0)"/></g></svg>