<?xml version="1.0" encoding="UTF-8" standalone="no"?><!-- Generator: Gravit.io --><svg xmlns="http://www.w3.org/2000/svg" xmlns:xlink="http://www.w3.org/1999/xlink" style="isolation:isolate" viewBox="0 0 22 22" width="22pt" height="22pt"><defs><clipPath id="_clipPath_LrPEEJOsyaBvHtYcU9PMdreosgHKHthU"><rect width="22" height="22"/></clipPath></defs><g clip-path="url(#_clipPath_LrPEEJOsyaBvHtYcU9PMdreosgHKHthU)"><clipPath id="_clipPath_LP6g4hVe15ugBqiZjBaWSnyZ6y9aLibQ"><rect x="0" y="0" width="22" height="22" transform="matrix(1,0,0,1,0,0)" fill="rgb(255,255,255)"/></clipPath><g clip-path="url(#_clipPath_LP6g4hVe15ugBqiZjBaWSnyZ6y9aLibQ)"><g><path d=" M 8.959 13.041 L 8.959 19.04 L 6.96 19.04 L 6.96 16.617 L 1.576 22 L 0 20.424 L 5.383 15.04 L 2.96 15.04 L 2.96 13.041 L 8.959 13.041 L 8.959 13.041 L 8.959 13.041 Z  M 8.958 2.962 L 6.958 2.962 L 6.958 5.386 L 1.577 0 L 0 1.578 L 5.382 6.962 L 2.958 6.962 L 2.958 8.962 L 8.958 8.962 L 8.958 2.962 L 8.958 2.962 L 8.958 2.962 Z  M 13.041 8.959 L 19.04 8.959 L 19.04 6.96 L 16.617 6.96 L 22 1.576 L 20.424 0 L 15.04 5.383 L 15.04 2.96 L 13.041 2.96 L 13.041 8.959 L 13.041 8.959 Z  M 13.038 13.044 L 13.038 19.044 L 15.038 19.044 L 15.038 16.613 L 20.424 22 L 22 20.425 L 16.622 15.044 L 19.038 15.044 L 19.038 13.044 L 13.038 13.044 Z " fill-rule="evenodd" fill="rgb(0,0,0)"/></g></g></g></svg>