<?xml version="1.0" encoding="UTF-8" standalone="no"?><!-- Generator: Gravit.io --><svg xmlns="http://www.w3.org/2000/svg" xmlns:xlink="http://www.w3.org/1999/xlink" style="isolation:isolate" viewBox="0 0 22 22" width="22pt" height="22pt"><defs><clipPath id="_clipPath_yXKU07zPuDD300UVIglleRCpw0BxhuCC"><rect width="22" height="22"/></clipPath></defs><g clip-path="url(#_clipPath_yXKU07zPuDD300UVIglleRCpw0BxhuCC)"><path d=" M 3.708 7.661 C 2.427 7.661 1.631 8.329 1.631 9.41 L 1.631 12.303 C 1.631 12.858 1.846 13.38 2.238 13.773 C 2.63 14.166 3.151 14.382 3.708 14.382 L 6.042 14.382 L 13.655 22 L 13.655 0 L 6.116 7.661 L 3.706 7.661 L 3.708 7.661 Z  M 12.319 3.268 L 12.319 18.766 L 6.594 13.044 L 3.706 13.044 C 3.3 13.044 2.969 12.712 2.969 12.303 L 2.969 9.411 C 2.969 9.287 2.969 8.999 3.706 8.999 L 6.676 8.999 L 12.317 3.268 L 12.319 3.268 Z " fill="rgb(0,0,0)"/></g></svg>