<?xml version="1.0" encoding="UTF-8" standalone="no"?><!-- Generator: Gravit.io --><svg xmlns="http://www.w3.org/2000/svg" xmlns:xlink="http://www.w3.org/1999/xlink" style="isolation:isolate" viewBox="0 0 22 22" width="22pt" height="22pt"><defs><clipPath id="_clipPath_ZIwj2q6TgbOgkFGbHSoLzXUrymLSFO2U"><rect width="22" height="22"/></clipPath></defs><g clip-path="url(#_clipPath_ZIwj2q6TgbOgkFGbHSoLzXUrymLSFO2U)"><path d=" M 22 20.579 L 16.967 15.546 C 18.297 13.905 19.096 11.819 19.096 9.548 C 19.096 4.282 14.814 0 9.548 0 C 4.282 0 0 4.282 0 9.548 C 0 14.814 4.282 19.096 9.548 19.096 C 11.819 19.096 13.905 18.297 15.546 16.967 L 20.579 22 L 22 20.577 L 22 20.579 Z  M 2.01 9.548 C 2.01 5.393 5.393 2.01 9.548 2.01 C 13.703 2.01 17.086 5.393 17.086 9.548 C 17.086 13.703 13.703 17.086 9.548 17.086 C 5.393 17.086 2.01 13.703 2.01 9.548 Z " fill="rgb(0,0,0)"/></g></svg>