<?xml version="1.0" encoding="UTF-8" standalone="no"?><!-- Generator: Gravit.io --><svg xmlns="http://www.w3.org/2000/svg" xmlns:xlink="http://www.w3.org/1999/xlink" style="isolation:isolate" viewBox="0 0 32 32" width="32pt" height="32pt"><defs><clipPath id="_clipPath_v93wbGzqUOOI7WKcS9PN0wS55LAdd0g6"><rect width="32" height="32"/></clipPath></defs><g clip-path="url(#_clipPath_v93wbGzqUOOI7WKcS9PN0wS55LAdd0g6)"><clipPath id="_clipPath_mtbAbjTaQJ5D8EDV4AknI2z37VSM89Pt"><rect x="0" y="0" width="32" height="32" transform="matrix(1,0,0,1,0,0)" fill="rgb(255,255,255)"/></clipPath><g clip-path="url(#_clipPath_mtbAbjTaQJ5D8EDV4AknI2z37VSM89Pt)"><g><clipPath id="_clipPath_PFWXGG8sOSbpy8FRuSKTnER9lg99NPZY"><rect x="0" y="0" width="32" height="32" transform="matrix(1,0,0,1,0,0)" fill="rgb(255,255,255)"/></clipPath><g clip-path="url(#_clipPath_PFWXGG8sOSbpy8FRuSKTnER9lg99NPZY)"><g><g><path d=" M 32 3.2 L 32 7 L 8 7 L 8 3 L 32 3.2 L 32 3.2 Z  M 8 18 L 32 18.135 L 32 13.868 L 8 14 L 8 18 L 8 18 Z  M 8 29 L 32 29 L 32 25 L 8 25 L 8 29 L 8 29 Z  M 2.132 2.866 C 0.954 2.866 0 3.819 0 5 C 0 6.181 0.954 7.132 2.132 7.132 C 3.311 7.132 4.267 6.178 4.267 5 C 4.267 3.822 3.311 2.866 2.132 2.866 L 2.132 2.866 L 2.132 2.866 Z  M 2.132 13.868 C 0.954 13.868 0 14.822 0 16 C 0 17.178 0.954 18.135 2.132 18.135 C 3.311 18.135 4.267 17.181 4.267 16 C 4.267 14.819 3.311 13.868 2.132 13.868 L 2.132 13.868 L 2.132 13.868 Z  M 2.132 24.866 C 0.954 24.866 0 25.82 0 27 C 0 28.181 0.954 29.132 2.132 29.132 C 3.311 29.132 4.267 28.181 4.267 27 C 4.267 25.82 3.311 24.866 2.132 24.866 L 2.132 24.866 L 2.132 24.866 Z " fill="rgb(255,255,255)"/></g></g></g></g></g></g></svg>