<?xml version="1.0" encoding="UTF-8" standalone="no"?><!-- Generator: Gravit.io --><svg xmlns="http://www.w3.org/2000/svg" xmlns:xlink="http://www.w3.org/1999/xlink" style="isolation:isolate" viewBox="0 0 22 22" width="22pt" height="22pt"><defs><clipPath id="_clipPath_YrAVu31ikSQHic1dnYPhjrMqoaM0d3BW"><rect width="22" height="22"/></clipPath></defs><g clip-path="url(#_clipPath_YrAVu31ikSQHic1dnYPhjrMqoaM0d3BW)"><clipPath id="_clipPath_9isqjR3KpUdEJnKIE4dozuQewJyxRNqd"><rect x="0" y="0" width="22" height="22" transform="matrix(1,0,0,1,0,0)" fill="rgb(255,255,255)"/></clipPath><g clip-path="url(#_clipPath_9isqjR3KpUdEJnKIE4dozuQewJyxRNqd)"><g><path d=" M 22 17.419 C 22 19.953 19.951 22 17.418 22 C 14.882 22 12.834 19.951 12.834 17.419 C 12.834 17.26 12.847 17.089 12.861 16.932 L 7.706 14.353 C 6.889 15.112 5.786 15.584 4.584 15.584 C 2.045 15.584 0 13.535 0 11 C 0 8.466 2.049 6.418 4.582 6.418 C 5.786 6.418 6.888 6.889 7.703 7.649 L 12.86 5.072 C 12.846 4.911 12.832 4.742 12.832 4.584 C 12.834 2.049 14.884 0 17.419 0 C 19.951 0 22 2.049 22 4.587 C 22 7.123 19.951 9.169 17.418 9.169 C 16.214 9.169 15.112 8.698 14.297 7.938 L 9.14 10.516 C 9.154 10.674 9.168 10.846 9.168 11.003 C 9.168 11.163 9.154 11.333 9.14 11.492 L 14.297 14.071 C 15.112 13.311 16.215 12.838 17.418 12.838 C 19.951 12.836 22 14.884 22 17.421 L 22 17.419 L 22 17.419 Z " fill="rgb(255,255,255)"/></g></g></g></svg>