<?xml version="1.0" encoding="UTF-8" standalone="no"?><!-- Generator: Gravit.io --><svg xmlns="http://www.w3.org/2000/svg" xmlns:xlink="http://www.w3.org/1999/xlink" style="isolation:isolate" viewBox="0 0 22 22" width="22pt" height="22pt"><defs><clipPath id="_clipPath_BdrBIiZpihC2CH2y48kuaE8Z8wVr2MyN"><rect width="22" height="22"/></clipPath></defs><g clip-path="url(#_clipPath_BdrBIiZpihC2CH2y48kuaE8Z8wVr2MyN)"><clipPath id="_clipPath_QsbfKJ4U67aaYgWHWsUjSJaWezFTxkdA"><rect x="0" y="0" width="22" height="22" transform="matrix(1,0,0,1,0,0)" fill="rgb(255,255,255)"/></clipPath><g clip-path="url(#_clipPath_QsbfKJ4U67aaYgWHWsUjSJaWezFTxkdA)"><g><path d=" M 3.708 7.661 C 2.427 7.661 1.631 8.329 1.631 9.41 L 1.631 12.303 C 1.631 12.858 1.846 13.38 2.238 13.773 C 2.63 14.166 3.151 14.382 3.708 14.382 L 6.042 14.382 L 13.655 22 L 13.655 0 L 6.116 7.661 L 3.706 7.661 L 3.708 7.661 L 3.708 7.661 Z  M 12.319 3.268 L 12.319 18.766 L 6.594 13.044 L 3.706 13.044 C 3.3 13.044 2.969 12.712 2.969 12.303 L 2.969 9.411 C 2.969 9.287 2.969 8.999 3.706 8.999 L 6.676 8.999 L 12.317 3.268 L 12.319 3.268 L 12.319 3.268 Z  M 14.98 14.428 L 14.98 13.09 C 15.724 13.09 16.33 12.484 16.33 11.74 C 16.33 10.996 15.724 10.387 14.98 10.387 L 14.98 9.048 C 16.462 9.048 17.669 10.256 17.669 11.74 C 17.669 13.223 16.464 14.427 14.98 14.427 L 14.98 14.428 L 14.98 14.428 Z  M 20.369 11.75 C 20.369 14.704 17.965 17.106 15.013 17.106 L 15.013 15.768 C 17.225 15.768 19.029 13.965 19.029 11.75 C 19.029 9.536 17.225 7.732 15.013 7.732 L 15.013 6.394 C 17.964 6.394 20.369 8.798 20.369 11.75 L 20.369 11.75 L 20.369 11.75 Z " fill="rgb(255,255,255)"/></g></g></g></svg>