<?xml version="1.0" encoding="UTF-8" standalone="no"?><!-- Generator: Gravit.io --><svg xmlns="http://www.w3.org/2000/svg" xmlns:xlink="http://www.w3.org/1999/xlink" style="isolation:isolate" viewBox="0 0 22 22" width="22pt" height="22pt"><defs><clipPath id="_clipPath_5O6RK4yHhdz3yvpHYyYm9eLdcKrjsNUE"><rect width="22" height="22"/></clipPath></defs><g clip-path="url(#_clipPath_5O6RK4yHhdz3yvpHYyYm9eLdcKrjsNUE)"><clipPath id="_clipPath_NNsQ6ZtvPw3LpcmOKuJv5oxFtx6LQMYI"><rect x="0" y="0" width="22" height="22" transform="matrix(1,0,0,1,0,0)" fill="rgb(255,255,255)"/></clipPath><g clip-path="url(#_clipPath_NNsQ6ZtvPw3LpcmOKuJv5oxFtx6LQMYI)"><g><clipPath id="_clipPath_N8eFqCC1YIi0s6aDKJDRQsD41ZEWciSi"><rect x="0" y="0" width="32" height="32" transform="matrix(1,0,0,1,0,0)" fill="rgb(255,255,255)"/></clipPath><g clip-path="url(#_clipPath_N8eFqCC1YIi0s6aDKJDRQsD41ZEWciSi)"><g><g><path d=" M 0 10 L 10 10 L 10 0 L 0 0 L 0 10 L 0 10 Z  M 2 2 L 8 2 L 8 8 L 2 8 L 2 2 L 2 2 Z  M 12 0 L 12 10 L 22 10 L 22 0 L 12 0 L 12 0 Z  M 20 8 L 14 8 L 14 2 L 20 2 L 20 8 L 20 8 Z  M 0 22 L 10 22 L 10 12 L 0 12 L 0 22 L 0 22 Z  M 2 14 L 8 14 L 8 20 L 2 20 L 2 14 L 2 14 Z  M 22 22 L 22 12 L 12 12 L 12 22 L 22 22 L 22 22 Z  M 14 14 L 20 14 L 20 20 L 14 20 L 14 14 L 14 14 Z " fill="rgb(255,255,255)"/></g></g></g></g></g></g></svg>