<?xml version="1.0" encoding="UTF-8" standalone="no"?><!-- Generator: Gravit.io --><svg xmlns="http://www.w3.org/2000/svg" xmlns:xlink="http://www.w3.org/1999/xlink" style="isolation:isolate" viewBox="0 0 22 22" width="22pt" height="22pt"><defs><clipPath id="_clipPath_8BgPcAfgt1MwgA0VERsRDxaTbnb5seFR"><rect width="22" height="22"/></clipPath></defs><g clip-path="url(#_clipPath_8BgPcAfgt1MwgA0VERsRDxaTbnb5seFR)"><clipPath id="_clipPath_ssSB1AkLbHaBZKQPdqoOPN0ti6vWXItH"><rect x="0" y="0" width="22" height="22" transform="matrix(1,0,0,1,0,0)" fill="rgb(255,255,255)"/></clipPath><g clip-path="url(#_clipPath_ssSB1AkLbHaBZKQPdqoOPN0ti6vWXItH)"><g><path d=" M 19.74 6.519 C 19.753 6.715 19.753 6.91 19.753 7.107 C 19.753 13.066 15.216 19.934 6.924 19.934 C 4.37 19.934 1.997 19.194 0 17.91 C 0.364 17.951 0.713 17.964 1.09 17.964 C 3.198 17.964 5.136 17.253 6.687 16.039 C 4.704 15.997 3.044 14.698 2.472 12.911 C 2.75 12.953 3.03 12.981 3.321 12.981 C 3.727 12.981 4.132 12.925 4.509 12.828 C 2.443 12.409 0.893 10.594 0.893 8.403 C 0.893 8.389 0.893 8.361 0.893 8.348 C 1.493 8.682 2.191 8.891 2.932 8.92 C 1.717 8.11 0.921 6.727 0.921 5.165 C 0.921 4.329 1.145 3.559 1.536 2.889 C 3.756 5.627 7.092 7.413 10.833 7.607 C 10.762 7.272 10.72 6.923 10.72 6.573 C 10.72 4.09 12.732 2.066 15.23 2.066 C 16.528 2.066 17.7 2.61 18.524 3.49 C 19.542 3.295 20.518 2.918 21.385 2.401 C 21.05 3.449 20.338 4.329 19.403 4.885 C 20.312 4.788 21.19 4.537 22 4.187 C 21.385 5.08 20.618 5.877 19.74 6.519 Z " fill="rgb(255,255,255)"/></g></g></g></svg>