<svg width="117px" height="117px" viewBox="0 0 117 117" version="1.1" xmlns="http://www.w3.org/2000/svg" xmlns:xlink="http://www.w3.org/1999/xlink">
    <!-- Generator: Sketch 47.1 (45422) - http://www.bohemiancoding.com/sketch -->
    <desc>Created with Sketch.</desc>
    <defs></defs>
    <g id="Page-1" stroke="none" stroke-width="1" fill="none" fill-rule="evenodd">
        <g id="search-w" fill-rule="nonzero" fill="#FFFFFF">
            <path d="M45.6,90.7 C56.6,90.7 66.6,86.8 74.4,80.2 L109.4,115.2 C110.2,116 111.2,116.4 112.3,116.4 C113.4,116.4 114.4,116 115.2,115.2 C116.8,113.6 116.8,111 115.2,109.4 L80.2,74.4 C86.7,66.6 90.7,56.5 90.7,45.6 C90.7,20.7 70.5,0.5 45.6,0.5 C20.8,0.5 0.5,20.8 0.5,45.6 C0.5,70.5 20.8,90.7 45.6,90.7 Z M45.6,8.7 C66,8.7 82.5,25.3 82.5,45.6 C82.5,66 66,82.5 45.6,82.5 C25.2,82.5 8.7,65.9 8.7,45.6 C8.7,25.3 25.3,8.7 45.6,8.7 Z" id="Shape"></path>
        </g>
    </g>
</svg>